<?xml version="1.0" encoding="utf-8" standalone="no"?>
<!DOCTYPE svg PUBLIC "-//W3C//DTD SVG 1.1//EN"
  "http://www.w3.org/Graphics/SVG/1.1/DTD/svg11.dtd">
<!-- Created with matplotlib (http://matplotlib.org/) -->
<svg height="345pt" version="1.1" viewBox="0 0 460 345" width="460pt" xmlns="http://www.w3.org/2000/svg" xmlns:xlink="http://www.w3.org/1999/xlink">
 <defs>
  <style type="text/css">
*{stroke-linecap:butt;stroke-linejoin:round;}
  </style>
 </defs>
 <g id="figure_1">
  <g id="patch_1">
   <path d="M 0 345.6 
L 460.8 345.6 
L 460.8 0 
L 0 0 
z
" style="fill:#ffffff;"/>
  </g>
  <g id="axes_1">
   <g id="patch_2">
    <path d="M 57.6 307.584 
L 414.72 307.584 
L 414.72 41.472 
L 57.6 41.472 
z
" style="fill:#ffffff;"/>
   </g>
   <g id="PolyCollection_1">
    <path clip-path="url(#p811d6f58e1)" d="M 73.832727 213.52494 
L 73.832727 295.488 
L 74.92584 295.488 
L 76.018953 295.488 
L 77.112066 295.488 
L 78.205179 295.488 
L 79.298292 295.488 
L 80.391405 295.488 
L 81.484518 295.488 
L 82.577631 295.488 
L 83.670744 295.488 
L 84.763857 295.488 
L 85.85697 295.488 
L 86.950083 295.488 
L 88.043196 295.488 
L 89.136309 295.488 
L 90.229421 295.488 
L 91.322534 295.488 
L 92.415647 295.488 
L 93.50876 295.488 
L 94.601873 295.488 
L 95.694986 295.488 
L 96.788099 295.488 
L 97.881212 295.488 
L 98.974325 295.488 
L 100.067438 295.488 
L 101.160551 295.488 
L 102.253664 295.488 
L 103.346777 295.488 
L 104.43989 295.488 
L 105.533003 295.488 
L 106.626116 295.488 
L 107.719229 295.488 
L 108.812342 295.488 
L 109.905455 295.488 
L 110.998567 295.488 
L 112.09168 295.488 
L 113.184793 295.488 
L 114.277906 295.488 
L 115.371019 295.488 
L 116.464132 295.488 
L 117.557245 295.488 
L 118.650358 295.488 
L 119.743471 295.488 
L 120.836584 295.488 
L 121.929697 295.488 
L 123.02281 295.488 
L 124.115923 295.488 
L 125.209036 295.488 
L 126.302149 295.488 
L 127.395262 295.488 
L 128.488375 295.488 
L 129.581488 295.488 
L 130.674601 295.488 
L 131.767713 295.488 
L 132.860826 295.488 
L 133.953939 295.488 
L 135.047052 295.488 
L 136.140165 295.488 
L 137.233278 295.488 
L 138.326391 295.488 
L 139.419504 295.488 
L 140.512617 295.488 
L 141.60573 295.488 
L 142.698843 295.488 
L 143.791956 295.488 
L 144.885069 295.488 
L 145.978182 295.488 
L 147.071295 295.488 
L 148.164408 295.488 
L 149.257521 295.488 
L 150.350634 295.488 
L 151.443747 295.488 
L 152.53686 295.488 
L 153.629972 295.488 
L 154.723085 295.488 
L 155.816198 295.488 
L 156.909311 295.488 
L 158.002424 295.488 
L 159.095537 295.488 
L 160.18865 295.488 
L 161.281763 295.488 
L 162.374876 295.488 
L 163.467989 295.488 
L 164.561102 295.488 
L 165.654215 295.488 
L 166.747328 295.488 
L 167.840441 295.488 
L 168.933554 295.488 
L 170.026667 295.488 
L 171.11978 295.488 
L 172.212893 295.488 
L 173.306006 295.488 
L 174.399118 295.488 
L 175.492231 295.488 
L 176.585344 295.488 
L 177.678457 295.488 
L 178.77157 295.488 
L 179.864683 295.488 
L 180.957796 295.488 
L 182.050909 295.488 
L 183.144022 295.488 
L 184.237135 295.488 
L 185.330248 295.488 
L 186.423361 295.488 
L 187.516474 295.488 
L 188.609587 295.488 
L 189.7027 295.488 
L 190.795813 295.488 
L 191.888926 295.488 
L 192.982039 295.488 
L 194.075152 295.488 
L 195.168264 295.488 
L 196.261377 295.488 
L 197.35449 295.488 
L 198.447603 295.488 
L 199.540716 295.488 
L 200.633829 295.488 
L 201.726942 295.488 
L 202.820055 295.488 
L 203.913168 295.488 
L 205.006281 295.488 
L 206.099394 295.488 
L 207.192507 295.488 
L 208.28562 295.488 
L 209.378733 295.488 
L 210.471846 295.488 
L 211.564959 295.488 
L 212.658072 295.488 
L 213.751185 295.488 
L 214.844298 295.488 
L 215.93741 295.488 
L 217.030523 295.488 
L 218.123636 295.488 
L 219.216749 295.488 
L 220.309862 295.488 
L 221.402975 295.488 
L 222.496088 295.488 
L 223.589201 295.488 
L 224.682314 295.488 
L 225.775427 295.488 
L 226.86854 295.488 
L 227.961653 295.488 
L 229.054766 295.488 
L 230.147879 295.488 
L 231.240992 295.488 
L 232.334105 295.488 
L 233.427218 295.488 
L 234.520331 295.488 
L 235.613444 295.488 
L 236.706556 295.488 
L 237.799669 295.488 
L 238.892782 295.488 
L 239.985895 295.488 
L 241.079008 295.488 
L 242.172121 295.488 
L 243.265234 295.488 
L 244.358347 295.488 
L 245.45146 295.488 
L 246.544573 295.488 
L 247.637686 295.488 
L 248.730799 295.488 
L 249.823912 295.488 
L 250.917025 295.488 
L 252.010138 295.488 
L 253.103251 295.488 
L 254.196364 295.488 
L 255.289477 295.488 
L 256.38259 295.488 
L 257.475702 295.488 
L 258.568815 295.488 
L 259.661928 295.488 
L 260.755041 295.488 
L 261.848154 295.488 
L 262.941267 295.488 
L 264.03438 295.488 
L 265.127493 295.488 
L 266.220606 295.488 
L 267.313719 295.488 
L 268.406832 295.488 
L 269.499945 295.488 
L 270.593058 295.488 
L 271.686171 295.488 
L 272.779284 295.488 
L 273.872397 295.488 
L 274.96551 295.488 
L 276.058623 295.488 
L 277.151736 295.488 
L 278.244848 295.488 
L 279.337961 295.488 
L 280.431074 295.488 
L 281.524187 295.488 
L 282.6173 295.488 
L 283.710413 295.488 
L 284.803526 295.488 
L 285.896639 295.488 
L 286.989752 295.488 
L 288.082865 295.488 
L 289.175978 295.488 
L 290.269091 295.488 
L 291.362204 295.488 
L 292.455317 295.488 
L 293.54843 295.488 
L 294.641543 295.488 
L 295.734656 295.488 
L 296.827769 295.488 
L 297.920882 295.488 
L 299.013994 295.488 
L 300.107107 295.488 
L 301.20022 295.488 
L 302.293333 295.488 
L 303.386446 295.488 
L 304.479559 295.488 
L 305.572672 295.488 
L 306.665785 295.488 
L 307.758898 295.488 
L 308.852011 295.488 
L 309.945124 295.488 
L 311.038237 295.488 
L 312.13135 295.488 
L 313.224463 295.488 
L 314.317576 295.488 
L 315.410689 295.488 
L 316.503802 295.488 
L 317.596915 295.488 
L 318.690028 295.488 
L 319.78314 295.488 
L 320.876253 295.488 
L 321.969366 295.488 
L 323.062479 295.488 
L 324.155592 295.488 
L 325.248705 295.488 
L 326.341818 295.488 
L 327.434931 295.488 
L 328.528044 295.488 
L 329.621157 295.488 
L 330.71427 295.488 
L 331.807383 295.488 
L 332.900496 295.488 
L 333.993609 295.488 
L 335.086722 295.488 
L 336.179835 295.488 
L 337.272948 295.488 
L 338.366061 295.488 
L 339.459174 295.488 
L 340.552287 295.488 
L 341.645399 295.488 
L 342.738512 295.488 
L 343.831625 295.488 
L 344.924738 295.488 
L 346.017851 295.488 
L 347.110964 295.488 
L 348.204077 295.488 
L 349.29719 295.488 
L 350.390303 295.488 
L 351.483416 295.488 
L 352.576529 295.488 
L 353.669642 295.488 
L 354.762755 295.488 
L 355.855868 295.488 
L 356.948981 295.488 
L 358.042094 295.488 
L 359.135207 295.488 
L 360.22832 295.488 
L 361.321433 295.488 
L 362.414545 295.488 
L 363.507658 295.488 
L 364.600771 295.488 
L 365.693884 295.488 
L 366.786997 295.488 
L 367.88011 295.488 
L 368.973223 295.488 
L 370.066336 295.488 
L 371.159449 295.488 
L 372.252562 295.488 
L 373.345675 295.488 
L 374.438788 295.488 
L 375.531901 295.488 
L 376.625014 295.488 
L 377.718127 295.488 
L 378.81124 295.488 
L 379.904353 295.488 
L 380.997466 295.488 
L 382.090579 295.488 
L 383.183691 295.488 
L 384.276804 295.488 
L 385.369917 295.488 
L 386.46303 295.488 
L 387.556143 295.488 
L 388.649256 295.488 
L 389.742369 295.488 
L 390.835482 295.488 
L 391.928595 295.488 
L 393.021708 295.488 
L 394.114821 295.488 
L 395.207934 295.488 
L 396.301047 295.488 
L 397.39416 295.488 
L 398.487273 295.488 
L 398.487273 209.039687 
L 398.487273 209.039687 
L 397.39416 210.996329 
L 396.301047 207.87416 
L 395.207934 207.501328 
L 394.114821 209.129647 
L 393.021708 209.549528 
L 391.928595 208.217224 
L 390.835482 207.192515 
L 389.742369 210.664879 
L 388.649256 210.117077 
L 387.556143 210.422924 
L 386.46303 211.135612 
L 385.369917 210.409851 
L 384.276804 212.98094 
L 383.183691 212.920124 
L 382.090579 213.316527 
L 380.997466 213.06518 
L 379.904353 213.910886 
L 378.81124 215.394466 
L 377.718127 214.497945 
L 376.625014 214.291707 
L 375.531901 214.909909 
L 374.438788 214.535123 
L 373.345675 214.407272 
L 372.252562 214.296521 
L 371.159449 214.06152 
L 370.066336 214.078783 
L 368.973223 213.551756 
L 367.88011 213.724702 
L 366.786997 213.348186 
L 365.693884 213.298868 
L 364.600771 213.225113 
L 363.507658 212.696307 
L 362.414545 213.191002 
L 361.321433 212.697513 
L 360.22832 213.203739 
L 359.135207 213.339942 
L 358.042094 213.555697 
L 356.948981 214.125955 
L 355.855868 212.852667 
L 354.762755 213.576688 
L 353.669642 213.290204 
L 352.576529 213.465837 
L 351.483416 212.751368 
L 350.390303 212.206815 
L 349.29719 212.836221 
L 348.204077 212.377343 
L 347.110964 211.824158 
L 346.017851 210.105135 
L 344.924738 209.994749 
L 343.831625 210.801537 
L 342.738512 209.496792 
L 341.645399 208.824256 
L 340.552287 209.0783 
L 339.459174 209.225724 
L 338.366061 209.637823 
L 337.272948 207.793566 
L 336.179835 205.693951 
L 335.086722 205.639506 
L 333.993609 202.812018 
L 332.900496 202.520627 
L 331.807383 200.494459 
L 330.71427 200.414215 
L 329.621157 202.252493 
L 328.528044 202.275631 
L 327.434931 203.405182 
L 326.341818 203.094613 
L 325.248705 203.439891 
L 324.155592 198.887488 
L 323.062479 199.58185 
L 321.969366 198.893789 
L 320.876253 196.194685 
L 319.78314 195.04766 
L 318.690028 194.55367 
L 317.596915 195.604523 
L 316.503802 196.242191 
L 315.410689 198.021343 
L 314.317576 202.99682 
L 313.224463 204.295398 
L 312.13135 204.525394 
L 311.038237 209.764435 
L 309.945124 210.261828 
L 308.852011 208.563184 
L 307.758898 207.770421 
L 306.665785 210.196849 
L 305.572672 212.623932 
L 304.479559 212.295286 
L 303.386446 213.032623 
L 302.293333 214.225515 
L 301.20022 215.052935 
L 300.107107 214.591775 
L 299.013994 214.548356 
L 297.920882 214.923728 
L 296.827769 214.425547 
L 295.734656 214.782177 
L 294.641543 213.817609 
L 293.54843 213.619156 
L 292.455317 213.108875 
L 291.362204 212.977331 
L 290.269091 211.709888 
L 289.175978 211.915767 
L 288.082865 212.444264 
L 286.989752 211.620044 
L 285.896639 211.509748 
L 284.803526 211.404315 
L 283.710413 211.763414 
L 282.6173 210.987899 
L 281.524187 210.453331 
L 280.431074 210.705443 
L 279.337961 209.762072 
L 278.244848 210.473517 
L 277.151736 209.68254 
L 276.058623 209.919655 
L 274.96551 210.769353 
L 273.872397 211.047367 
L 272.779284 211.866329 
L 271.686171 210.405237 
L 270.593058 210.535439 
L 269.499945 210.963771 
L 268.406832 210.072141 
L 267.313719 208.530919 
L 266.220606 206.999721 
L 265.127493 208.37815 
L 264.03438 209.310918 
L 262.941267 207.01433 
L 261.848154 207.224725 
L 260.755041 206.75878 
L 259.661928 207.442385 
L 258.568815 205.632686 
L 257.475702 204.592055 
L 256.38259 205.340921 
L 255.289477 203.498339 
L 254.196364 203.729079 
L 253.103251 202.139593 
L 252.010138 203.317914 
L 250.917025 203.110204 
L 249.823912 203.510569 
L 248.730799 202.468482 
L 247.637686 202.508911 
L 246.544573 204.682821 
L 245.45146 203.583966 
L 244.358347 203.7382 
L 243.265234 204.421329 
L 242.172121 206.377506 
L 241.079008 207.789887 
L 239.985895 208.878606 
L 238.892782 210.315403 
L 237.799669 211.202755 
L 236.706556 211.487005 
L 235.613444 212.447817 
L 234.520331 213.264324 
L 233.427218 213.307333 
L 232.334105 213.331519 
L 231.240992 214.52417 
L 230.147879 214.313131 
L 229.054766 214.903054 
L 227.961653 214.709686 
L 226.86854 214.439148 
L 225.775427 214.551276 
L 224.682314 214.013429 
L 223.589201 214.350739 
L 222.496088 213.801528 
L 221.402975 214.100441 
L 220.309862 213.921657 
L 219.216749 213.625422 
L 218.123636 213.209583 
L 217.030523 212.690427 
L 215.93741 212.713892 
L 214.844298 212.328372 
L 213.751185 212.208209 
L 212.658072 211.952392 
L 211.564959 212.485095 
L 210.471846 212.728323 
L 209.378733 211.809552 
L 208.28562 210.981768 
L 207.192507 210.870257 
L 206.099394 210.942951 
L 205.006281 210.429834 
L 203.913168 209.960247 
L 202.820055 209.436678 
L 201.726942 210.93676 
L 200.633829 210.563728 
L 199.540716 209.305704 
L 198.447603 208.52138 
L 197.35449 207.913777 
L 196.261377 209.344552 
L 195.168264 207.666076 
L 194.075152 208.259128 
L 192.982039 208.736393 
L 191.888926 206.943041 
L 190.795813 208.24253 
L 189.7027 207.604053 
L 188.609587 207.177741 
L 187.516474 207.366235 
L 186.423361 207.931137 
L 185.330248 207.84026 
L 184.237135 205.980219 
L 183.144022 205.714863 
L 182.050909 206.034408 
L 180.957796 204.801142 
L 179.864683 202.971816 
L 178.77157 202.436877 
L 177.678457 198.964095 
L 176.585344 199.513192 
L 175.492231 198.204295 
L 174.399118 196.065019 
L 173.306006 197.837036 
L 172.212893 198.819445 
L 171.11978 200.577154 
L 170.026667 196.099639 
L 168.933554 196.397692 
L 167.840441 202.486723 
L 166.747328 202.684903 
L 165.654215 204.457628 
L 164.561102 207.075447 
L 163.467989 211.236277 
L 162.374876 211.18215 
L 161.281763 208.931357 
L 160.18865 207.852049 
L 159.095537 208.678378 
L 158.002424 209.308698 
L 156.909311 210.258021 
L 155.816198 212.416477 
L 154.723085 211.915494 
L 153.629972 211.589888 
L 152.53686 211.791644 
L 151.443747 213.044297 
L 150.350634 213.185652 
L 149.257521 212.845286 
L 148.164408 213.436674 
L 147.071295 214.687013 
L 145.978182 214.666533 
L 144.885069 213.789813 
L 143.791956 213.513788 
L 142.698843 213.870638 
L 141.60573 213.389625 
L 140.512617 213.461232 
L 139.419504 213.899267 
L 138.326391 213.187558 
L 137.233278 211.657427 
L 136.140165 212.260848 
L 135.047052 212.549974 
L 133.953939 212.150615 
L 132.860826 211.782681 
L 131.767713 211.762968 
L 130.674601 213.264045 
L 129.581488 211.593695 
L 128.488375 210.459302 
L 127.395262 210.31156 
L 126.302149 211.179575 
L 125.209036 210.797439 
L 124.115923 209.281118 
L 123.02281 208.774855 
L 121.929697 209.6831 
L 120.836584 208.99073 
L 119.743471 205.967335 
L 118.650358 206.342896 
L 117.557245 205.807591 
L 116.464132 202.24627 
L 115.371019 204.623067 
L 114.277906 205.920239 
L 113.184793 204.441607 
L 112.09168 203.664703 
L 110.998567 204.670149 
L 109.905455 208.645706 
L 108.812342 203.181697 
L 107.719229 199.123251 
L 106.626116 201.504256 
L 105.533003 199.128975 
L 104.43989 198.988367 
L 103.346777 197.366113 
L 102.253664 195.267092 
L 101.160551 198.799682 
L 100.067438 194.673077 
L 98.974325 192.337617 
L 97.881212 194.472109 
L 96.788099 196.527934 
L 95.694986 198.580767 
L 94.601873 196.553195 
L 93.50876 200.959666 
L 92.415647 206.655187 
L 91.322534 203.232233 
L 90.229421 203.669735 
L 89.136309 208.240196 
L 88.043196 210.15171 
L 86.950083 212.48948 
L 85.85697 212.740978 
L 84.763857 214.92985 
L 83.670744 215.943148 
L 82.577631 214.564439 
L 81.484518 215.716309 
L 80.391405 213.832359 
L 79.298292 214.2573 
L 78.205179 214.713044 
L 77.112066 213.566478 
L 76.018953 213.908595 
L 74.92584 213.483573 
L 73.832727 213.52494 
z
" style="fill:#008000;fill-opacity:0.4;"/>
   </g>
   <g id="matplotlib.axis_1">
    <g id="xtick_1">
     <g id="line2d_1">
      <defs>
       <path d="M 0 0 
L 0 3.5 
" id="m91d1f2c421" style="stroke:#000000;stroke-width:0.8;"/>
      </defs>
      <g>
       <use style="stroke:#000000;stroke-width:0.8;" x="73.832727" xlink:href="#m91d1f2c421" y="307.584"/>
      </g>
     </g>
     <g id="text_1">
      <!-- 0.0 -->
      <defs>
       <path d="M 31.78125 66.40625 
Q 24.171875 66.40625 20.328125 58.90625 
Q 16.5 51.421875 16.5 36.375 
Q 16.5 21.390625 20.328125 13.890625 
Q 24.171875 6.390625 31.78125 6.390625 
Q 39.453125 6.390625 43.28125 13.890625 
Q 47.125 21.390625 47.125 36.375 
Q 47.125 51.421875 43.28125 58.90625 
Q 39.453125 66.40625 31.78125 66.40625 
z
M 31.78125 74.21875 
Q 44.046875 74.21875 50.515625 64.515625 
Q 56.984375 54.828125 56.984375 36.375 
Q 56.984375 17.96875 50.515625 8.265625 
Q 44.046875 -1.421875 31.78125 -1.421875 
Q 19.53125 -1.421875 13.0625 8.265625 
Q 6.59375 17.96875 6.59375 36.375 
Q 6.59375 54.828125 13.0625 64.515625 
Q 19.53125 74.21875 31.78125 74.21875 
z
" id="DejaVuSans-30"/>
       <path d="M 10.6875 12.40625 
L 21 12.40625 
L 21 0 
L 10.6875 0 
z
" id="DejaVuSans-2e"/>
      </defs>
      <g transform="translate(65.881165 322.182437)scale(0.1 -0.1)">
       <use xlink:href="#DejaVuSans-30"/>
       <use x="63.623047" xlink:href="#DejaVuSans-2e"/>
       <use x="95.410156" xlink:href="#DejaVuSans-30"/>
      </g>
     </g>
    </g>
    <g id="xtick_2">
     <g id="line2d_2">
      <g>
       <use style="stroke:#000000;stroke-width:0.8;" x="138.763636" xlink:href="#m91d1f2c421" y="307.584"/>
      </g>
     </g>
     <g id="text_2">
      <!-- 0.2 -->
      <defs>
       <path d="M 19.1875 8.296875 
L 53.609375 8.296875 
L 53.609375 0 
L 7.328125 0 
L 7.328125 8.296875 
Q 12.9375 14.109375 22.625 23.890625 
Q 32.328125 33.6875 34.8125 36.53125 
Q 39.546875 41.84375 41.421875 45.53125 
Q 43.3125 49.21875 43.3125 52.78125 
Q 43.3125 58.59375 39.234375 62.25 
Q 35.15625 65.921875 28.609375 65.921875 
Q 23.96875 65.921875 18.8125 64.3125 
Q 13.671875 62.703125 7.8125 59.421875 
L 7.8125 69.390625 
Q 13.765625 71.78125 18.9375 73 
Q 24.125 74.21875 28.421875 74.21875 
Q 39.75 74.21875 46.484375 68.546875 
Q 53.21875 62.890625 53.21875 53.421875 
Q 53.21875 48.921875 51.53125 44.890625 
Q 49.859375 40.875 45.40625 35.40625 
Q 44.1875 33.984375 37.640625 27.21875 
Q 31.109375 20.453125 19.1875 8.296875 
z
" id="DejaVuSans-32"/>
      </defs>
      <g transform="translate(130.812074 322.182437)scale(0.1 -0.1)">
       <use xlink:href="#DejaVuSans-30"/>
       <use x="63.623047" xlink:href="#DejaVuSans-2e"/>
       <use x="95.410156" xlink:href="#DejaVuSans-32"/>
      </g>
     </g>
    </g>
    <g id="xtick_3">
     <g id="line2d_3">
      <g>
       <use style="stroke:#000000;stroke-width:0.8;" x="203.694545" xlink:href="#m91d1f2c421" y="307.584"/>
      </g>
     </g>
     <g id="text_3">
      <!-- 0.4 -->
      <defs>
       <path d="M 37.796875 64.3125 
L 12.890625 25.390625 
L 37.796875 25.390625 
z
M 35.203125 72.90625 
L 47.609375 72.90625 
L 47.609375 25.390625 
L 58.015625 25.390625 
L 58.015625 17.1875 
L 47.609375 17.1875 
L 47.609375 0 
L 37.796875 0 
L 37.796875 17.1875 
L 4.890625 17.1875 
L 4.890625 26.703125 
z
" id="DejaVuSans-34"/>
      </defs>
      <g transform="translate(195.742983 322.182437)scale(0.1 -0.1)">
       <use xlink:href="#DejaVuSans-30"/>
       <use x="63.623047" xlink:href="#DejaVuSans-2e"/>
       <use x="95.410156" xlink:href="#DejaVuSans-34"/>
      </g>
     </g>
    </g>
    <g id="xtick_4">
     <g id="line2d_4">
      <g>
       <use style="stroke:#000000;stroke-width:0.8;" x="268.625455" xlink:href="#m91d1f2c421" y="307.584"/>
      </g>
     </g>
     <g id="text_4">
      <!-- 0.6 -->
      <defs>
       <path d="M 33.015625 40.375 
Q 26.375 40.375 22.484375 35.828125 
Q 18.609375 31.296875 18.609375 23.390625 
Q 18.609375 15.53125 22.484375 10.953125 
Q 26.375 6.390625 33.015625 6.390625 
Q 39.65625 6.390625 43.53125 10.953125 
Q 47.40625 15.53125 47.40625 23.390625 
Q 47.40625 31.296875 43.53125 35.828125 
Q 39.65625 40.375 33.015625 40.375 
z
M 52.59375 71.296875 
L 52.59375 62.3125 
Q 48.875 64.0625 45.09375 64.984375 
Q 41.3125 65.921875 37.59375 65.921875 
Q 27.828125 65.921875 22.671875 59.328125 
Q 17.53125 52.734375 16.796875 39.40625 
Q 19.671875 43.65625 24.015625 45.921875 
Q 28.375 48.1875 33.59375 48.1875 
Q 44.578125 48.1875 50.953125 41.515625 
Q 57.328125 34.859375 57.328125 23.390625 
Q 57.328125 12.15625 50.6875 5.359375 
Q 44.046875 -1.421875 33.015625 -1.421875 
Q 20.359375 -1.421875 13.671875 8.265625 
Q 6.984375 17.96875 6.984375 36.375 
Q 6.984375 53.65625 15.1875 63.9375 
Q 23.390625 74.21875 37.203125 74.21875 
Q 40.921875 74.21875 44.703125 73.484375 
Q 48.484375 72.75 52.59375 71.296875 
z
" id="DejaVuSans-36"/>
      </defs>
      <g transform="translate(260.673892 322.182437)scale(0.1 -0.1)">
       <use xlink:href="#DejaVuSans-30"/>
       <use x="63.623047" xlink:href="#DejaVuSans-2e"/>
       <use x="95.410156" xlink:href="#DejaVuSans-36"/>
      </g>
     </g>
    </g>
    <g id="xtick_5">
     <g id="line2d_5">
      <g>
       <use style="stroke:#000000;stroke-width:0.8;" x="333.556364" xlink:href="#m91d1f2c421" y="307.584"/>
      </g>
     </g>
     <g id="text_5">
      <!-- 0.8 -->
      <defs>
       <path d="M 31.78125 34.625 
Q 24.75 34.625 20.71875 30.859375 
Q 16.703125 27.09375 16.703125 20.515625 
Q 16.703125 13.921875 20.71875 10.15625 
Q 24.75 6.390625 31.78125 6.390625 
Q 38.8125 6.390625 42.859375 10.171875 
Q 46.921875 13.96875 46.921875 20.515625 
Q 46.921875 27.09375 42.890625 30.859375 
Q 38.875 34.625 31.78125 34.625 
z
M 21.921875 38.8125 
Q 15.578125 40.375 12.03125 44.71875 
Q 8.5 49.078125 8.5 55.328125 
Q 8.5 64.0625 14.71875 69.140625 
Q 20.953125 74.21875 31.78125 74.21875 
Q 42.671875 74.21875 48.875 69.140625 
Q 55.078125 64.0625 55.078125 55.328125 
Q 55.078125 49.078125 51.53125 44.71875 
Q 48 40.375 41.703125 38.8125 
Q 48.828125 37.15625 52.796875 32.3125 
Q 56.78125 27.484375 56.78125 20.515625 
Q 56.78125 9.90625 50.3125 4.234375 
Q 43.84375 -1.421875 31.78125 -1.421875 
Q 19.734375 -1.421875 13.25 4.234375 
Q 6.78125 9.90625 6.78125 20.515625 
Q 6.78125 27.484375 10.78125 32.3125 
Q 14.796875 37.15625 21.921875 38.8125 
z
M 18.3125 54.390625 
Q 18.3125 48.734375 21.84375 45.5625 
Q 25.390625 42.390625 31.78125 42.390625 
Q 38.140625 42.390625 41.71875 45.5625 
Q 45.3125 48.734375 45.3125 54.390625 
Q 45.3125 60.0625 41.71875 63.234375 
Q 38.140625 66.40625 31.78125 66.40625 
Q 25.390625 66.40625 21.84375 63.234375 
Q 18.3125 60.0625 18.3125 54.390625 
z
" id="DejaVuSans-38"/>
      </defs>
      <g transform="translate(325.604801 322.182437)scale(0.1 -0.1)">
       <use xlink:href="#DejaVuSans-30"/>
       <use x="63.623047" xlink:href="#DejaVuSans-2e"/>
       <use x="95.410156" xlink:href="#DejaVuSans-38"/>
      </g>
     </g>
    </g>
    <g id="xtick_6">
     <g id="line2d_6">
      <g>
       <use style="stroke:#000000;stroke-width:0.8;" x="398.487273" xlink:href="#m91d1f2c421" y="307.584"/>
      </g>
     </g>
     <g id="text_6">
      <!-- 1.0 -->
      <defs>
       <path d="M 12.40625 8.296875 
L 28.515625 8.296875 
L 28.515625 63.921875 
L 10.984375 60.40625 
L 10.984375 69.390625 
L 28.421875 72.90625 
L 38.28125 72.90625 
L 38.28125 8.296875 
L 54.390625 8.296875 
L 54.390625 0 
L 12.40625 0 
z
" id="DejaVuSans-31"/>
      </defs>
      <g transform="translate(390.53571 322.182437)scale(0.1 -0.1)">
       <use xlink:href="#DejaVuSans-31"/>
       <use x="63.623047" xlink:href="#DejaVuSans-2e"/>
       <use x="95.410156" xlink:href="#DejaVuSans-30"/>
      </g>
     </g>
    </g>
   </g>
   <g id="matplotlib.axis_2">
    <g id="ytick_1">
     <g id="line2d_7">
      <defs>
       <path d="M 0 0 
L -3.5 0 
" id="mb67dddd5ac" style="stroke:#000000;stroke-width:0.8;"/>
      </defs>
      <g>
       <use style="stroke:#000000;stroke-width:0.8;" x="57.6" xlink:href="#mb67dddd5ac" y="295.488"/>
      </g>
     </g>
     <g id="text_7">
      <!-- 0.0 -->
      <g transform="translate(34.696875 299.287219)scale(0.1 -0.1)">
       <use xlink:href="#DejaVuSans-30"/>
       <use x="63.623047" xlink:href="#DejaVuSans-2e"/>
       <use x="95.410156" xlink:href="#DejaVuSans-30"/>
      </g>
     </g>
    </g>
    <g id="ytick_2">
     <g id="line2d_8">
      <g>
       <use style="stroke:#000000;stroke-width:0.8;" x="57.6" xlink:href="#mb67dddd5ac" y="246.608262"/>
      </g>
     </g>
     <g id="text_8">
      <!-- 0.2 -->
      <g transform="translate(34.696875 250.40748)scale(0.1 -0.1)">
       <use xlink:href="#DejaVuSans-30"/>
       <use x="63.623047" xlink:href="#DejaVuSans-2e"/>
       <use x="95.410156" xlink:href="#DejaVuSans-32"/>
      </g>
     </g>
    </g>
    <g id="ytick_3">
     <g id="line2d_9">
      <g>
       <use style="stroke:#000000;stroke-width:0.8;" x="57.6" xlink:href="#mb67dddd5ac" y="197.728523"/>
      </g>
     </g>
     <g id="text_9">
      <!-- 0.4 -->
      <g transform="translate(34.696875 201.527742)scale(0.1 -0.1)">
       <use xlink:href="#DejaVuSans-30"/>
       <use x="63.623047" xlink:href="#DejaVuSans-2e"/>
       <use x="95.410156" xlink:href="#DejaVuSans-34"/>
      </g>
     </g>
    </g>
    <g id="ytick_4">
     <g id="line2d_10">
      <g>
       <use style="stroke:#000000;stroke-width:0.8;" x="57.6" xlink:href="#mb67dddd5ac" y="148.848785"/>
      </g>
     </g>
     <g id="text_10">
      <!-- 0.6 -->
      <g transform="translate(34.696875 152.648004)scale(0.1 -0.1)">
       <use xlink:href="#DejaVuSans-30"/>
       <use x="63.623047" xlink:href="#DejaVuSans-2e"/>
       <use x="95.410156" xlink:href="#DejaVuSans-36"/>
      </g>
     </g>
    </g>
    <g id="ytick_5">
     <g id="line2d_11">
      <g>
       <use style="stroke:#000000;stroke-width:0.8;" x="57.6" xlink:href="#mb67dddd5ac" y="99.969047"/>
      </g>
     </g>
     <g id="text_11">
      <!-- 0.8 -->
      <g transform="translate(34.696875 103.768266)scale(0.1 -0.1)">
       <use xlink:href="#DejaVuSans-30"/>
       <use x="63.623047" xlink:href="#DejaVuSans-2e"/>
       <use x="95.410156" xlink:href="#DejaVuSans-38"/>
      </g>
     </g>
    </g>
    <g id="ytick_6">
     <g id="line2d_12">
      <g>
       <use style="stroke:#000000;stroke-width:0.8;" x="57.6" xlink:href="#mb67dddd5ac" y="51.089308"/>
      </g>
     </g>
     <g id="text_12">
      <!-- 1.0 -->
      <g transform="translate(34.696875 54.888527)scale(0.1 -0.1)">
       <use xlink:href="#DejaVuSans-31"/>
       <use x="63.623047" xlink:href="#DejaVuSans-2e"/>
       <use x="95.410156" xlink:href="#DejaVuSans-30"/>
      </g>
     </g>
    </g>
   </g>
   <g id="line2d_13">
    <path clip-path="url(#p811d6f58e1)" d="M 73.832727 283.094567 
L 74.92584 283.259805 
L 76.018953 282.598828 
L 77.112066 281.607352 
L 78.205179 275.327992 
L 79.298292 272.8493 
L 80.391405 266.074129 
L 81.484518 255.333295 
L 82.577631 242.774624 
L 83.670744 221.953566 
L 84.763857 204.437512 
L 85.85697 184.60798 
L 88.043196 141.313485 
L 89.136309 123.79743 
L 90.229421 118.344407 
L 91.322534 103.637471 
L 92.415647 76.371864 
L 93.50876 67.118197 
L 94.601873 64.969932 
L 95.694986 54.559525 
L 96.788099 53.568 
L 97.881212 61.664929 
L 98.974325 79.181227 
L 100.067438 85.295105 
L 101.160551 86.947729 
L 102.253664 102.645946 
L 105.533003 129.250698 
L 106.626116 141.148271 
L 107.719229 159.986278 
L 108.812342 162.299756 
L 109.905455 150.567397 
L 110.998567 152.880875 
L 112.09168 158.333898 
L 113.184793 160.316949 
L 114.277906 158.333898 
L 115.371019 167.257139 
L 116.464132 182.790387 
L 117.557245 187.912983 
L 118.650358 200.471654 
L 119.743471 211.543159 
L 120.836584 213.030325 
L 121.929697 217.822495 
L 124.115923 233.685925 
L 125.209036 235.83419 
L 126.302149 238.312881 
L 127.395262 247.566793 
L 128.488375 253.350244 
L 129.581488 256.159363 
L 130.674601 254.011342 
L 131.767713 257.811987 
L 132.860826 262.108271 
L 135.047052 266.570014 
L 137.233278 277.476207 
L 138.326391 277.476207 
L 139.419504 275.162754 
L 140.512617 276.154231 
L 141.60573 274.336515 
L 142.698843 271.857824 
L 143.791956 271.36211 
L 144.885069 266.570014 
L 147.071295 248.558074 
L 148.164408 244.75743 
L 149.257521 239.800047 
L 150.350634 231.868332 
L 151.443747 226.910949 
L 152.53686 222.779878 
L 153.629972 217.987709 
L 154.723085 211.873586 
L 155.816198 198.653817 
L 156.909311 194.192319 
L 158.002424 191.052529 
L 159.095537 190.061003 
L 160.18865 188.24341 
L 161.281763 180.146237 
L 164.561102 114.87419 
L 167.840441 77.528603 
L 168.933554 89.591634 
L 170.026667 92.896637 
L 171.11978 88.269681 
L 172.212893 88.930535 
L 173.306006 95.540542 
L 174.399118 111.734644 
L 175.492231 121.318739 
L 176.585344 132.059817 
L 177.678457 150.071512 
L 178.77157 158.829539 
L 179.864683 166.265613 
L 180.957796 172.87562 
L 182.050909 174.362786 
L 183.144022 182.9556 
L 184.237135 184.60798 
L 185.330248 185.10362 
L 186.423361 184.60798 
L 187.516474 185.764719 
L 188.609587 189.234936 
L 189.7027 189.565363 
L 190.795813 192.539695 
L 191.888926 195.018386 
L 194.075152 198.158176 
L 195.168264 203.280773 
L 196.261377 204.272298 
L 197.35449 211.377946 
L 198.447603 217.491824 
L 199.540716 221.953566 
L 200.633829 221.127254 
L 201.726942 222.779878 
L 203.913168 236.164617 
L 205.006281 241.452671 
L 206.099394 245.748956 
L 207.192507 253.18503 
L 208.28562 259.133939 
L 209.378733 261.282204 
L 210.471846 262.438698 
L 211.564959 265.082848 
L 213.751185 274.171277 
L 214.844298 278.302422 
L 215.93741 283.094567 
L 217.030523 286.56471 
L 218.123636 289.208664 
L 219.216749 290.200141 
L 220.309862 289.53914 
L 221.402975 289.043402 
L 222.496088 288.712926 
L 223.589201 286.399473 
L 224.682314 285.242758 
L 225.775427 280.285375 
L 226.86854 276.319468 
L 229.054766 259.960251 
L 230.147879 252.524176 
L 231.240992 241.617885 
L 232.334105 235.999403 
L 233.427218 226.580522 
L 234.520331 215.343803 
L 235.613444 206.916203 
L 239.985895 158.994997 
L 242.172121 141.478698 
L 243.265234 140.487417 
L 244.358347 140.322204 
L 245.45146 137.678054 
L 246.544573 133.546983 
L 247.637686 137.678054 
L 248.730799 138.173939 
L 249.823912 140.652631 
L 250.917025 139.330678 
L 252.010138 145.775227 
L 253.103251 153.706942 
L 254.196364 158.168685 
L 255.289477 166.926712 
L 256.38259 168.744305 
L 257.475702 180.642122 
L 259.661928 185.269078 
L 262.941267 200.471654 
L 264.03438 198.653817 
L 265.127493 204.107085 
L 266.220606 213.69118 
L 267.313719 220.962041 
L 268.406832 222.779878 
L 269.499945 222.11878 
L 271.686171 224.101831 
L 272.779284 219.474875 
L 273.872397 218.483349 
L 274.96551 216.996183 
L 276.058623 219.640088 
L 277.151736 224.432258 
L 278.244848 227.241376 
L 279.337961 234.016597 
L 280.431074 237.321356 
L 281.524187 244.096576 
L 282.6173 247.566793 
L 283.710413 250.541125 
L 285.896639 260.786319 
L 286.989752 264.586963 
L 288.082865 267.726753 
L 289.175978 275.493254 
L 290.269091 281.111614 
L 291.362204 284.416519 
L 292.455317 286.56471 
L 293.54843 286.729973 
L 294.641543 285.07752 
L 295.734656 280.285375 
L 296.827769 274.667016 
L 299.013994 259.794793 
L 300.107107 249.384386 
L 302.293333 224.101831 
L 303.386446 217.161397 
L 304.479559 200.802081 
L 305.572672 188.24341 
L 306.665785 180.807336 
L 307.758898 175.684739 
L 308.852011 167.257139 
L 309.945124 140.817844 
L 311.038237 120.823098 
L 314.317576 67.613837 
L 315.410689 63.64798 
L 316.503802 64.804719 
L 317.596915 71.745153 
L 318.690028 81.825132 
L 319.78314 96.531824 
L 320.876253 108.925281 
L 321.969366 113.22181 
L 323.062479 125.284841 
L 324.155592 133.381769 
L 325.248705 133.051342 
L 326.341818 128.5896 
L 327.434931 127.102434 
L 328.528044 127.598074 
L 329.621157 128.920027 
L 330.71427 143.296536 
L 331.807383 154.863681 
L 333.993609 183.616454 
L 335.086722 192.539695 
L 336.179835 205.759464 
L 337.272948 209.560108 
L 338.366061 210.38642 
L 339.459174 214.517492 
L 340.552287 220.301187 
L 341.645399 231.04202 
L 342.738512 235.83419 
L 343.831625 241.617885 
L 344.924738 253.515458 
L 346.017851 261.612631 
L 347.110964 266.074129 
L 348.204077 267.891966 
L 349.29719 270.535871 
L 350.390303 274.832254 
L 351.483416 276.484731 
L 352.576529 275.658492 
L 353.669642 276.815207 
L 354.762755 275.988993 
L 355.855868 277.971946 
L 356.948981 273.840777 
L 358.042094 274.501778 
L 359.135207 274.171277 
L 360.22832 274.501778 
L 361.321433 277.971946 
L 362.414545 279.789637 
L 363.507658 283.590305 
L 364.600771 285.407996 
L 365.693884 287.72145 
L 366.786997 289.704403 
L 367.88011 290.530617 
L 368.973223 291.687356 
L 370.066336 291.852594 
L 372.252562 288.547664 
L 373.345675 286.068972 
L 376.625014 269.379132 
L 377.718127 262.76937 
L 378.81124 249.880027 
L 379.904353 243.766149 
L 380.997466 238.643308 
L 382.090579 230.215953 
L 383.183691 223.440732 
L 384.276804 213.360752 
L 385.369917 213.030325 
L 386.46303 206.916203 
L 387.556143 203.445986 
L 388.649256 197.166651 
L 389.742369 192.374481 
L 390.835482 198.984488 
L 391.928595 199.975769 
L 393.021708 196.67101 
L 394.114821 196.340339 
L 395.207934 202.124034 
L 396.301047 205.429037 
L 397.39416 198.158176 
L 398.487273 196.67101 
L 398.487273 196.67101 
" style="fill:none;stroke:#1f77b4;stroke-linecap:square;stroke-width:1.5;"/>
   </g>
   <g id="line2d_14">
    <path clip-path="url(#p811d6f58e1)" d="M 73.832727 240.270838 
L 74.92584 240.251213 
L 76.018953 240.540224 
L 77.112066 240.30063 
L 78.205179 241.061621 
L 80.391405 240.360948 
L 81.484518 241.553165 
L 82.577631 240.635378 
L 83.670744 241.412099 
L 84.763857 240.636351 
L 85.85697 239.207167 
L 86.950083 239.120767 
L 88.043196 237.613208 
L 89.136309 236.386309 
L 90.229421 233.309886 
L 91.322534 233.018143 
L 92.415647 235.431087 
L 93.50876 231.614622 
L 94.601873 228.588073 
L 95.694986 229.979216 
L 98.974325 225.677913 
L 100.067438 227.22986 
L 101.160551 230.065034 
L 102.253664 227.635084 
L 103.346777 229.013948 
L 104.43989 230.105478 
L 105.533003 230.165765 
L 106.626116 231.771073 
L 107.719229 230.084361 
L 108.812342 232.790509 
L 109.905455 236.555102 
L 110.998567 233.884512 
L 112.09168 233.169345 
L 113.184793 233.677819 
L 114.277906 234.68964 
L 115.371019 233.808505 
L 116.464132 232.124971 
L 117.557245 234.499553 
L 118.650358 234.852581 
L 119.743471 234.534863 
L 120.836584 236.565605 
L 121.929697 237.042486 
L 123.02281 236.395157 
L 124.115923 236.70285 
L 125.209036 237.825554 
L 126.302149 238.113498 
L 127.395262 237.561075 
L 128.488375 237.773357 
L 129.581488 238.619385 
L 130.674601 239.77718 
L 131.767713 238.73641 
L 132.860826 238.800512 
L 135.047052 239.400202 
L 136.140165 239.230862 
L 137.233278 238.886679 
L 138.326391 239.989494 
L 139.419504 240.466121 
L 140.512617 240.143212 
L 141.60573 240.10335 
L 142.698843 240.410219 
L 143.791956 240.138821 
L 144.885069 240.315109 
L 145.978182 240.849802 
L 147.071295 240.756875 
L 148.164408 239.79853 
L 149.257521 239.347596 
L 150.350634 239.517372 
L 151.443747 239.322667 
L 152.53686 238.441898 
L 153.629972 238.318619 
L 154.723085 238.564713 
L 155.816198 238.941495 
L 156.909311 237.517341 
L 158.002424 236.877749 
L 159.095537 236.456986 
L 160.18865 235.890679 
L 161.281763 236.639847 
L 162.374876 238.231597 
L 163.467989 238.375829 
L 164.561102 235.612442 
L 165.654215 233.88647 
L 166.747328 232.702898 
L 167.840441 232.601621 
L 168.933554 228.459059 
L 170.026667 228.188741 
L 171.11978 231.267543 
L 172.212893 230.083168 
L 173.306006 229.399167 
L 174.399118 228.152025 
L 175.492231 229.559794 
L 176.585344 230.431321 
L 177.678457 230.009422 
L 178.77157 232.321088 
L 179.864683 232.660533 
L 180.957796 233.885635 
L 182.050909 234.709627 
L 183.144022 234.485909 
L 184.237135 234.627417 
L 185.330248 235.901398 
L 186.423361 235.966163 
L 187.516474 235.580335 
L 188.609587 235.442643 
L 189.7027 235.719536 
L 190.795813 236.158998 
L 191.888926 235.251409 
L 192.982039 236.471 
L 195.168264 235.721995 
L 196.261377 236.852548 
L 197.35449 235.866774 
L 198.447603 236.246806 
L 199.540716 236.760078 
L 200.633829 237.608558 
L 201.726942 237.872762 
L 202.820055 236.831507 
L 206.099394 238.024841 
L 207.192507 238.032744 
L 208.28562 238.198317 
L 210.471846 239.483772 
L 211.564959 239.329561 
L 212.658072 239.003087 
L 215.93741 239.679629 
L 217.030523 239.717032 
L 219.216749 240.419554 
L 221.402975 240.742564 
L 222.496088 240.534526 
L 223.589201 240.901187 
L 224.682314 240.646367 
L 225.775427 240.99367 
L 226.86854 240.861565 
L 229.054766 241.026986 
L 230.147879 240.529139 
L 231.240992 240.577183 
L 232.334105 239.641224 
L 234.520331 239.459793 
L 236.706556 238.325028 
L 237.799669 238.182019 
L 238.892782 237.624152 
L 239.985895 236.693879 
L 241.079008 235.994092 
L 242.172121 235.059209 
L 243.265234 233.747475 
L 244.358347 233.275269 
L 245.45146 233.168919 
L 246.544573 233.936621 
L 247.637686 232.45988 
L 248.730799 232.408082 
L 249.823912 233.124048 
L 250.917025 232.839764 
L 252.010138 232.987931 
L 253.103251 232.147265 
L 254.196364 233.204986 
L 255.289477 233.028772 
L 256.38259 234.256718 
L 257.475702 233.736915 
L 258.568815 234.395864 
L 259.661928 235.634794 
L 260.755041 235.156284 
L 261.848154 235.452439 
L 262.941267 235.285501 
L 264.03438 236.841545 
L 265.127493 236.213393 
L 266.220606 235.233752 
L 268.406832 237.272214 
L 269.499945 237.883158 
L 270.593058 237.592856 
L 271.686171 237.496455 
L 272.779284 238.499147 
L 273.872397 237.960755 
L 274.96551 237.77156 
L 276.058623 237.19178 
L 277.151736 237.012565 
L 278.244848 237.535324 
L 279.337961 237.041249 
L 280.431074 237.767399 
L 281.524187 237.643106 
L 282.6173 238.08808 
L 283.710413 238.658702 
L 284.803526 238.451327 
L 286.989752 238.725834 
L 288.082865 239.332753 
L 289.175978 239.012312 
L 290.269091 238.964005 
L 291.362204 239.891487 
L 292.455317 240.015025 
L 293.54843 240.384799 
L 294.641543 240.52032 
L 295.734656 241.150061 
L 296.827769 240.850346 
L 297.920882 241.121331 
L 299.013994 240.776693 
L 300.107107 240.714697 
L 301.20022 240.896922 
L 302.293333 240.171931 
L 303.386446 239.313592 
L 304.479559 238.83588 
L 305.572672 239.135459 
L 307.758898 235.88317 
L 308.852011 236.445951 
L 309.945124 237.658431 
L 311.038237 237.438417 
L 312.13135 233.914674 
L 313.224463 233.811182 
L 314.317576 232.980615 
L 315.410689 229.606275 
L 316.503802 228.375978 
L 317.596915 227.92809 
L 318.690028 227.180516 
L 319.78314 227.488847 
L 320.876253 228.228835 
L 321.969366 230.047496 
L 323.062479 230.512844 
L 324.155592 229.985033 
L 325.248705 233.087248 
L 326.341818 232.862862 
L 327.434931 233.094941 
L 328.528044 232.322758 
L 329.621157 232.302572 
L 330.71427 231.030158 
L 331.807383 231.016813 
L 332.900496 232.3617 
L 333.993609 232.498547 
L 335.086722 234.381816 
L 336.179835 234.383126 
L 338.366061 237.025599 
L 339.459174 236.741424 
L 341.645399 236.415873 
L 342.738512 236.906622 
L 343.831625 237.86419 
L 344.924738 237.387384 
L 346.017851 237.607868 
L 347.110964 238.878198 
L 349.29719 239.635774 
L 350.390303 239.240284 
L 352.576529 240.163129 
L 353.669642 240.035221 
L 354.762755 240.238689 
L 355.855868 239.743424 
L 356.948981 240.623926 
L 358.042094 240.191701 
L 360.22832 239.95697 
L 361.321433 239.622989 
L 362.414545 239.994924 
L 363.507658 239.682494 
L 364.600771 240.084964 
L 366.786997 240.215615 
L 367.88011 240.492067 
L 368.973223 240.385 
L 370.066336 240.753798 
L 371.159449 240.74049 
L 373.345675 240.935903 
L 374.438788 240.99143 
L 375.531901 241.182831 
L 376.625014 240.698733 
L 377.718127 240.771838 
L 378.81124 241.288838 
L 379.904353 240.134958 
L 380.997466 239.485675 
L 382.090579 239.588744 
L 383.183691 239.215535 
L 384.276804 239.277852 
L 385.369917 237.5527 
L 386.46303 238.04746 
L 387.556143 237.588194 
L 388.649256 237.391657 
L 389.742369 237.798196 
L 390.835482 235.429916 
L 391.928595 236.095471 
L 393.021708 237.012338 
L 394.114821 236.741547 
L 395.207934 235.619038 
L 396.301047 235.843456 
L 397.39416 237.981683 
L 398.487273 236.676571 
L 398.487273 236.676571 
" style="fill:none;stroke:#ff7f0e;stroke-linecap:square;stroke-width:1.5;"/>
   </g>
   <g id="line2d_15">
    <path clip-path="url(#p811d6f58e1)" d="M 73.832727 295.488 
L 398.487273 295.488 
L 398.487273 295.488 
" style="fill:none;stroke:#2ca02c;stroke-linecap:square;stroke-width:1.5;"/>
   </g>
   <g id="line2d_16">
    <path clip-path="url(#p811d6f58e1)" d="M 73.832727 213.52494 
L 74.92584 213.483573 
L 76.018953 213.908595 
L 77.112066 213.566478 
L 78.205179 214.713044 
L 80.391405 213.832359 
L 81.484518 215.716309 
L 82.577631 214.564439 
L 83.670744 215.943148 
L 84.763857 214.92985 
L 85.85697 212.740978 
L 86.950083 212.48948 
L 88.043196 210.15171 
L 89.136309 208.240196 
L 90.229421 203.669735 
L 91.322534 203.232233 
L 92.415647 206.655187 
L 93.50876 200.959666 
L 94.601873 196.553195 
L 95.694986 198.580767 
L 98.974325 192.337617 
L 100.067438 194.673077 
L 101.160551 198.799682 
L 102.253664 195.267092 
L 103.346777 197.366113 
L 104.43989 198.988367 
L 105.533003 199.128975 
L 106.626116 201.504256 
L 107.719229 199.123251 
L 108.812342 203.181697 
L 109.905455 208.645706 
L 110.998567 204.670149 
L 112.09168 203.664703 
L 113.184793 204.441607 
L 114.277906 205.920239 
L 115.371019 204.623067 
L 116.464132 202.24627 
L 117.557245 205.807591 
L 118.650358 206.342896 
L 119.743471 205.967335 
L 120.836584 208.99073 
L 121.929697 209.6831 
L 123.02281 208.774855 
L 124.115923 209.281118 
L 125.209036 210.797439 
L 126.302149 211.179575 
L 127.395262 210.31156 
L 128.488375 210.459302 
L 129.581488 211.593695 
L 130.674601 213.264045 
L 131.767713 211.762968 
L 132.860826 211.782681 
L 135.047052 212.549974 
L 136.140165 212.260848 
L 137.233278 211.657427 
L 138.326391 213.187558 
L 139.419504 213.899267 
L 140.512617 213.461232 
L 141.60573 213.389625 
L 142.698843 213.870638 
L 143.791956 213.513788 
L 144.885069 213.789813 
L 145.978182 214.666533 
L 147.071295 214.687013 
L 148.164408 213.436674 
L 149.257521 212.845286 
L 150.350634 213.185652 
L 151.443747 213.044297 
L 152.53686 211.791644 
L 153.629972 211.589888 
L 154.723085 211.915494 
L 155.816198 212.416477 
L 156.909311 210.258021 
L 158.002424 209.308698 
L 159.095537 208.678378 
L 160.18865 207.852049 
L 161.281763 208.931357 
L 162.374876 211.18215 
L 163.467989 211.236277 
L 164.561102 207.075447 
L 165.654215 204.457628 
L 166.747328 202.684903 
L 167.840441 202.486723 
L 168.933554 196.397692 
L 170.026667 196.099639 
L 171.11978 200.577154 
L 172.212893 198.819445 
L 173.306006 197.837036 
L 174.399118 196.065019 
L 175.492231 198.204295 
L 176.585344 199.513192 
L 177.678457 198.964095 
L 178.77157 202.436877 
L 179.864683 202.971816 
L 180.957796 204.801142 
L 182.050909 206.034408 
L 183.144022 205.714863 
L 184.237135 205.980219 
L 185.330248 207.84026 
L 186.423361 207.931137 
L 187.516474 207.366235 
L 188.609587 207.177741 
L 189.7027 207.604053 
L 190.795813 208.24253 
L 191.888926 206.943041 
L 192.982039 208.736393 
L 195.168264 207.666076 
L 196.261377 209.344552 
L 197.35449 207.913777 
L 198.447603 208.52138 
L 199.540716 209.305704 
L 200.633829 210.563728 
L 201.726942 210.93676 
L 202.820055 209.436678 
L 206.099394 210.942951 
L 207.192507 210.870257 
L 208.28562 210.981768 
L 210.471846 212.728323 
L 211.564959 212.485095 
L 212.658072 211.952392 
L 213.751185 212.208209 
L 214.844298 212.328372 
L 215.93741 212.713892 
L 217.030523 212.690427 
L 219.216749 213.625422 
L 220.309862 213.921657 
L 221.402975 214.100441 
L 222.496088 213.801528 
L 223.589201 214.350739 
L 224.682314 214.013429 
L 225.775427 214.551276 
L 226.86854 214.439148 
L 229.054766 214.903054 
L 230.147879 214.313131 
L 231.240992 214.52417 
L 232.334105 213.331519 
L 234.520331 213.264324 
L 235.613444 212.447817 
L 236.706556 211.487005 
L 237.799669 211.202755 
L 238.892782 210.315403 
L 239.985895 208.878606 
L 241.079008 207.789887 
L 242.172121 206.377506 
L 243.265234 204.421329 
L 244.358347 203.7382 
L 245.45146 203.583966 
L 246.544573 204.682821 
L 247.637686 202.508911 
L 248.730799 202.468482 
L 249.823912 203.510569 
L 250.917025 203.110204 
L 252.010138 203.317914 
L 253.103251 202.139593 
L 254.196364 203.729079 
L 255.289477 203.498339 
L 256.38259 205.340921 
L 257.475702 204.592055 
L 258.568815 205.632686 
L 259.661928 207.442385 
L 260.755041 206.75878 
L 261.848154 207.224725 
L 262.941267 207.01433 
L 264.03438 209.310918 
L 265.127493 208.37815 
L 266.220606 206.999721 
L 268.406832 210.072141 
L 269.499945 210.963771 
L 270.593058 210.535439 
L 271.686171 210.405237 
L 272.779284 211.866329 
L 273.872397 211.047367 
L 274.96551 210.769353 
L 276.058623 209.919655 
L 277.151736 209.68254 
L 278.244848 210.473517 
L 279.337961 209.762072 
L 280.431074 210.705443 
L 281.524187 210.453331 
L 282.6173 210.987899 
L 283.710413 211.763414 
L 284.803526 211.404315 
L 286.989752 211.620044 
L 288.082865 212.444264 
L 289.175978 211.915767 
L 290.269091 211.709888 
L 291.362204 212.977331 
L 292.455317 213.108875 
L 293.54843 213.619156 
L 294.641543 213.817609 
L 295.734656 214.782177 
L 296.827769 214.425547 
L 297.920882 214.923728 
L 299.013994 214.548356 
L 300.107107 214.591775 
L 301.20022 215.052935 
L 302.293333 214.225515 
L 303.386446 213.032623 
L 304.479559 212.295286 
L 305.572672 212.623932 
L 307.758898 207.770421 
L 308.852011 208.563184 
L 309.945124 210.261828 
L 311.038237 209.764435 
L 312.13135 204.525394 
L 313.224463 204.295398 
L 314.317576 202.99682 
L 315.410689 198.021343 
L 316.503802 196.242191 
L 317.596915 195.604523 
L 318.690028 194.55367 
L 319.78314 195.04766 
L 320.876253 196.194685 
L 321.969366 198.893789 
L 323.062479 199.58185 
L 324.155592 198.887488 
L 325.248705 203.439891 
L 326.341818 203.094613 
L 327.434931 203.405182 
L 328.528044 202.275631 
L 329.621157 202.252493 
L 330.71427 200.414215 
L 331.807383 200.494459 
L 332.900496 202.520627 
L 333.993609 202.812018 
L 335.086722 205.639506 
L 336.179835 205.693951 
L 337.272948 207.793566 
L 338.366061 209.637823 
L 339.459174 209.225724 
L 341.645399 208.824256 
L 342.738512 209.496792 
L 343.831625 210.801537 
L 344.924738 209.994749 
L 346.017851 210.105135 
L 347.110964 211.824158 
L 349.29719 212.836221 
L 350.390303 212.206815 
L 351.483416 212.751368 
L 352.576529 213.465837 
L 353.669642 213.290204 
L 354.762755 213.576688 
L 355.855868 212.852667 
L 356.948981 214.125955 
L 358.042094 213.555697 
L 360.22832 213.203739 
L 361.321433 212.697513 
L 362.414545 213.191002 
L 363.507658 212.696307 
L 364.600771 213.225113 
L 366.786997 213.348186 
L 367.88011 213.724702 
L 368.973223 213.551756 
L 370.066336 214.078783 
L 371.159449 214.06152 
L 372.252562 214.296521 
L 374.438788 214.535123 
L 375.531901 214.909909 
L 376.625014 214.291707 
L 377.718127 214.497945 
L 378.81124 215.394466 
L 379.904353 213.910886 
L 380.997466 213.06518 
L 382.090579 213.316527 
L 383.183691 212.920124 
L 384.276804 212.98094 
L 385.369917 210.409851 
L 386.46303 211.135612 
L 387.556143 210.422924 
L 388.649256 210.117077 
L 389.742369 210.664879 
L 390.835482 207.192515 
L 391.928595 208.217224 
L 393.021708 209.549528 
L 394.114821 209.129647 
L 395.207934 207.501328 
L 396.301047 207.87416 
L 397.39416 210.996329 
L 398.487273 209.039687 
L 398.487273 209.039687 
" style="fill:none;stroke:#d62728;stroke-linecap:square;stroke-width:1.5;"/>
   </g>
   <g id="patch_3">
    <path d="M 57.6 307.584 
L 57.6 41.472 
" style="fill:none;stroke:#000000;stroke-linecap:square;stroke-linejoin:miter;stroke-width:0.8;"/>
   </g>
   <g id="patch_4">
    <path d="M 414.72 307.584 
L 414.72 41.472 
" style="fill:none;stroke:#000000;stroke-linecap:square;stroke-linejoin:miter;stroke-width:0.8;"/>
   </g>
   <g id="patch_5">
    <path d="M 57.6 307.584 
L 414.72 307.584 
" style="fill:none;stroke:#000000;stroke-linecap:square;stroke-linejoin:miter;stroke-width:0.8;"/>
   </g>
   <g id="patch_6">
    <path d="M 57.6 41.472 
L 414.72 41.472 
" style="fill:none;stroke:#000000;stroke-linecap:square;stroke-linejoin:miter;stroke-width:0.8;"/>
   </g>
   <g id="text_13">
    <!-- Plot of Train Data vs MCMC Uncertainty  -->
    <defs>
     <path d="M 19.671875 64.796875 
L 19.671875 37.40625 
L 32.078125 37.40625 
Q 38.96875 37.40625 42.71875 40.96875 
Q 46.484375 44.53125 46.484375 51.125 
Q 46.484375 57.671875 42.71875 61.234375 
Q 38.96875 64.796875 32.078125 64.796875 
z
M 9.8125 72.90625 
L 32.078125 72.90625 
Q 44.34375 72.90625 50.609375 67.359375 
Q 56.890625 61.8125 56.890625 51.125 
Q 56.890625 40.328125 50.609375 34.8125 
Q 44.34375 29.296875 32.078125 29.296875 
L 19.671875 29.296875 
L 19.671875 0 
L 9.8125 0 
z
" id="DejaVuSans-50"/>
     <path d="M 9.421875 75.984375 
L 18.40625 75.984375 
L 18.40625 0 
L 9.421875 0 
z
" id="DejaVuSans-6c"/>
     <path d="M 30.609375 48.390625 
Q 23.390625 48.390625 19.1875 42.75 
Q 14.984375 37.109375 14.984375 27.296875 
Q 14.984375 17.484375 19.15625 11.84375 
Q 23.34375 6.203125 30.609375 6.203125 
Q 37.796875 6.203125 41.984375 11.859375 
Q 46.1875 17.53125 46.1875 27.296875 
Q 46.1875 37.015625 41.984375 42.703125 
Q 37.796875 48.390625 30.609375 48.390625 
z
M 30.609375 56 
Q 42.328125 56 49.015625 48.375 
Q 55.71875 40.765625 55.71875 27.296875 
Q 55.71875 13.875 49.015625 6.21875 
Q 42.328125 -1.421875 30.609375 -1.421875 
Q 18.84375 -1.421875 12.171875 6.21875 
Q 5.515625 13.875 5.515625 27.296875 
Q 5.515625 40.765625 12.171875 48.375 
Q 18.84375 56 30.609375 56 
z
" id="DejaVuSans-6f"/>
     <path d="M 18.3125 70.21875 
L 18.3125 54.6875 
L 36.8125 54.6875 
L 36.8125 47.703125 
L 18.3125 47.703125 
L 18.3125 18.015625 
Q 18.3125 11.328125 20.140625 9.421875 
Q 21.96875 7.515625 27.59375 7.515625 
L 36.8125 7.515625 
L 36.8125 0 
L 27.59375 0 
Q 17.1875 0 13.234375 3.875 
Q 9.28125 7.765625 9.28125 18.015625 
L 9.28125 47.703125 
L 2.6875 47.703125 
L 2.6875 54.6875 
L 9.28125 54.6875 
L 9.28125 70.21875 
z
" id="DejaVuSans-74"/>
     <path id="DejaVuSans-20"/>
     <path d="M 37.109375 75.984375 
L 37.109375 68.5 
L 28.515625 68.5 
Q 23.6875 68.5 21.796875 66.546875 
Q 19.921875 64.59375 19.921875 59.515625 
L 19.921875 54.6875 
L 34.71875 54.6875 
L 34.71875 47.703125 
L 19.921875 47.703125 
L 19.921875 0 
L 10.890625 0 
L 10.890625 47.703125 
L 2.296875 47.703125 
L 2.296875 54.6875 
L 10.890625 54.6875 
L 10.890625 58.5 
Q 10.890625 67.625 15.140625 71.796875 
Q 19.390625 75.984375 28.609375 75.984375 
z
" id="DejaVuSans-66"/>
     <path d="M -0.296875 72.90625 
L 61.375 72.90625 
L 61.375 64.59375 
L 35.5 64.59375 
L 35.5 0 
L 25.59375 0 
L 25.59375 64.59375 
L -0.296875 64.59375 
z
" id="DejaVuSans-54"/>
     <path d="M 41.109375 46.296875 
Q 39.59375 47.171875 37.8125 47.578125 
Q 36.03125 48 33.890625 48 
Q 26.265625 48 22.1875 43.046875 
Q 18.109375 38.09375 18.109375 28.8125 
L 18.109375 0 
L 9.078125 0 
L 9.078125 54.6875 
L 18.109375 54.6875 
L 18.109375 46.1875 
Q 20.953125 51.171875 25.484375 53.578125 
Q 30.03125 56 36.53125 56 
Q 37.453125 56 38.578125 55.875 
Q 39.703125 55.765625 41.0625 55.515625 
z
" id="DejaVuSans-72"/>
     <path d="M 34.28125 27.484375 
Q 23.390625 27.484375 19.1875 25 
Q 14.984375 22.515625 14.984375 16.5 
Q 14.984375 11.71875 18.140625 8.90625 
Q 21.296875 6.109375 26.703125 6.109375 
Q 34.1875 6.109375 38.703125 11.40625 
Q 43.21875 16.703125 43.21875 25.484375 
L 43.21875 27.484375 
z
M 52.203125 31.203125 
L 52.203125 0 
L 43.21875 0 
L 43.21875 8.296875 
Q 40.140625 3.328125 35.546875 0.953125 
Q 30.953125 -1.421875 24.3125 -1.421875 
Q 15.921875 -1.421875 10.953125 3.296875 
Q 6 8.015625 6 15.921875 
Q 6 25.140625 12.171875 29.828125 
Q 18.359375 34.515625 30.609375 34.515625 
L 43.21875 34.515625 
L 43.21875 35.40625 
Q 43.21875 41.609375 39.140625 45 
Q 35.0625 48.390625 27.6875 48.390625 
Q 23 48.390625 18.546875 47.265625 
Q 14.109375 46.140625 10.015625 43.890625 
L 10.015625 52.203125 
Q 14.9375 54.109375 19.578125 55.046875 
Q 24.21875 56 28.609375 56 
Q 40.484375 56 46.34375 49.84375 
Q 52.203125 43.703125 52.203125 31.203125 
z
" id="DejaVuSans-61"/>
     <path d="M 9.421875 54.6875 
L 18.40625 54.6875 
L 18.40625 0 
L 9.421875 0 
z
M 9.421875 75.984375 
L 18.40625 75.984375 
L 18.40625 64.59375 
L 9.421875 64.59375 
z
" id="DejaVuSans-69"/>
     <path d="M 54.890625 33.015625 
L 54.890625 0 
L 45.90625 0 
L 45.90625 32.71875 
Q 45.90625 40.484375 42.875 44.328125 
Q 39.84375 48.1875 33.796875 48.1875 
Q 26.515625 48.1875 22.3125 43.546875 
Q 18.109375 38.921875 18.109375 30.90625 
L 18.109375 0 
L 9.078125 0 
L 9.078125 54.6875 
L 18.109375 54.6875 
L 18.109375 46.1875 
Q 21.34375 51.125 25.703125 53.5625 
Q 30.078125 56 35.796875 56 
Q 45.21875 56 50.046875 50.171875 
Q 54.890625 44.34375 54.890625 33.015625 
z
" id="DejaVuSans-6e"/>
     <path d="M 19.671875 64.796875 
L 19.671875 8.109375 
L 31.59375 8.109375 
Q 46.6875 8.109375 53.6875 14.9375 
Q 60.6875 21.78125 60.6875 36.53125 
Q 60.6875 51.171875 53.6875 57.984375 
Q 46.6875 64.796875 31.59375 64.796875 
z
M 9.8125 72.90625 
L 30.078125 72.90625 
Q 51.265625 72.90625 61.171875 64.09375 
Q 71.09375 55.28125 71.09375 36.53125 
Q 71.09375 17.671875 61.125 8.828125 
Q 51.171875 0 30.078125 0 
L 9.8125 0 
z
" id="DejaVuSans-44"/>
     <path d="M 2.984375 54.6875 
L 12.5 54.6875 
L 29.59375 8.796875 
L 46.6875 54.6875 
L 56.203125 54.6875 
L 35.6875 0 
L 23.484375 0 
z
" id="DejaVuSans-76"/>
     <path d="M 44.28125 53.078125 
L 44.28125 44.578125 
Q 40.484375 46.53125 36.375 47.5 
Q 32.28125 48.484375 27.875 48.484375 
Q 21.1875 48.484375 17.84375 46.4375 
Q 14.5 44.390625 14.5 40.28125 
Q 14.5 37.15625 16.890625 35.375 
Q 19.28125 33.59375 26.515625 31.984375 
L 29.59375 31.296875 
Q 39.15625 29.25 43.1875 25.515625 
Q 47.21875 21.78125 47.21875 15.09375 
Q 47.21875 7.46875 41.1875 3.015625 
Q 35.15625 -1.421875 24.609375 -1.421875 
Q 20.21875 -1.421875 15.453125 -0.5625 
Q 10.6875 0.296875 5.421875 2 
L 5.421875 11.28125 
Q 10.40625 8.6875 15.234375 7.390625 
Q 20.0625 6.109375 24.8125 6.109375 
Q 31.15625 6.109375 34.5625 8.28125 
Q 37.984375 10.453125 37.984375 14.40625 
Q 37.984375 18.0625 35.515625 20.015625 
Q 33.0625 21.96875 24.703125 23.78125 
L 21.578125 24.515625 
Q 13.234375 26.265625 9.515625 29.90625 
Q 5.8125 33.546875 5.8125 39.890625 
Q 5.8125 47.609375 11.28125 51.796875 
Q 16.75 56 26.8125 56 
Q 31.78125 56 36.171875 55.265625 
Q 40.578125 54.546875 44.28125 53.078125 
z
" id="DejaVuSans-73"/>
     <path d="M 9.8125 72.90625 
L 24.515625 72.90625 
L 43.109375 23.296875 
L 61.8125 72.90625 
L 76.515625 72.90625 
L 76.515625 0 
L 66.890625 0 
L 66.890625 64.015625 
L 48.09375 14.015625 
L 38.1875 14.015625 
L 19.390625 64.015625 
L 19.390625 0 
L 9.8125 0 
z
" id="DejaVuSans-4d"/>
     <path d="M 64.40625 67.28125 
L 64.40625 56.890625 
Q 59.421875 61.53125 53.78125 63.8125 
Q 48.140625 66.109375 41.796875 66.109375 
Q 29.296875 66.109375 22.65625 58.46875 
Q 16.015625 50.828125 16.015625 36.375 
Q 16.015625 21.96875 22.65625 14.328125 
Q 29.296875 6.6875 41.796875 6.6875 
Q 48.140625 6.6875 53.78125 8.984375 
Q 59.421875 11.28125 64.40625 15.921875 
L 64.40625 5.609375 
Q 59.234375 2.09375 53.4375 0.328125 
Q 47.65625 -1.421875 41.21875 -1.421875 
Q 24.65625 -1.421875 15.125 8.703125 
Q 5.609375 18.84375 5.609375 36.375 
Q 5.609375 53.953125 15.125 64.078125 
Q 24.65625 74.21875 41.21875 74.21875 
Q 47.75 74.21875 53.53125 72.484375 
Q 59.328125 70.75 64.40625 67.28125 
z
" id="DejaVuSans-43"/>
     <path d="M 8.6875 72.90625 
L 18.609375 72.90625 
L 18.609375 28.609375 
Q 18.609375 16.890625 22.84375 11.734375 
Q 27.09375 6.59375 36.625 6.59375 
Q 46.09375 6.59375 50.34375 11.734375 
Q 54.59375 16.890625 54.59375 28.609375 
L 54.59375 72.90625 
L 64.5 72.90625 
L 64.5 27.390625 
Q 64.5 13.140625 57.4375 5.859375 
Q 50.390625 -1.421875 36.625 -1.421875 
Q 22.796875 -1.421875 15.734375 5.859375 
Q 8.6875 13.140625 8.6875 27.390625 
z
" id="DejaVuSans-55"/>
     <path d="M 48.78125 52.59375 
L 48.78125 44.1875 
Q 44.96875 46.296875 41.140625 47.34375 
Q 37.3125 48.390625 33.40625 48.390625 
Q 24.65625 48.390625 19.8125 42.84375 
Q 14.984375 37.3125 14.984375 27.296875 
Q 14.984375 17.28125 19.8125 11.734375 
Q 24.65625 6.203125 33.40625 6.203125 
Q 37.3125 6.203125 41.140625 7.25 
Q 44.96875 8.296875 48.78125 10.40625 
L 48.78125 2.09375 
Q 45.015625 0.34375 40.984375 -0.53125 
Q 36.96875 -1.421875 32.421875 -1.421875 
Q 20.0625 -1.421875 12.78125 6.34375 
Q 5.515625 14.109375 5.515625 27.296875 
Q 5.515625 40.671875 12.859375 48.328125 
Q 20.21875 56 33.015625 56 
Q 37.15625 56 41.109375 55.140625 
Q 45.0625 54.296875 48.78125 52.59375 
z
" id="DejaVuSans-63"/>
     <path d="M 56.203125 29.59375 
L 56.203125 25.203125 
L 14.890625 25.203125 
Q 15.484375 15.921875 20.484375 11.0625 
Q 25.484375 6.203125 34.421875 6.203125 
Q 39.59375 6.203125 44.453125 7.46875 
Q 49.3125 8.734375 54.109375 11.28125 
L 54.109375 2.78125 
Q 49.265625 0.734375 44.1875 -0.34375 
Q 39.109375 -1.421875 33.890625 -1.421875 
Q 20.796875 -1.421875 13.15625 6.1875 
Q 5.515625 13.8125 5.515625 26.8125 
Q 5.515625 40.234375 12.765625 48.109375 
Q 20.015625 56 32.328125 56 
Q 43.359375 56 49.78125 48.890625 
Q 56.203125 41.796875 56.203125 29.59375 
z
M 47.21875 32.234375 
Q 47.125 39.59375 43.09375 43.984375 
Q 39.0625 48.390625 32.421875 48.390625 
Q 24.90625 48.390625 20.390625 44.140625 
Q 15.875 39.890625 15.1875 32.171875 
z
" id="DejaVuSans-65"/>
     <path d="M 32.171875 -5.078125 
Q 28.375 -14.84375 24.75 -17.8125 
Q 21.140625 -20.796875 15.09375 -20.796875 
L 7.90625 -20.796875 
L 7.90625 -13.28125 
L 13.1875 -13.28125 
Q 16.890625 -13.28125 18.9375 -11.515625 
Q 21 -9.765625 23.484375 -3.21875 
L 25.09375 0.875 
L 2.984375 54.6875 
L 12.5 54.6875 
L 29.59375 11.921875 
L 46.6875 54.6875 
L 56.203125 54.6875 
z
" id="DejaVuSans-79"/>
    </defs>
    <g transform="translate(115.666875 35.472)scale(0.12 -0.12)">
     <use xlink:href="#DejaVuSans-50"/>
     <use x="60.302734" xlink:href="#DejaVuSans-6c"/>
     <use x="88.085938" xlink:href="#DejaVuSans-6f"/>
     <use x="149.267578" xlink:href="#DejaVuSans-74"/>
     <use x="188.476562" xlink:href="#DejaVuSans-20"/>
     <use x="220.263672" xlink:href="#DejaVuSans-6f"/>
     <use x="281.445312" xlink:href="#DejaVuSans-66"/>
     <use x="316.650391" xlink:href="#DejaVuSans-20"/>
     <use x="348.4375" xlink:href="#DejaVuSans-54"/>
     <use x="409.302734" xlink:href="#DejaVuSans-72"/>
     <use x="450.416016" xlink:href="#DejaVuSans-61"/>
     <use x="511.695312" xlink:href="#DejaVuSans-69"/>
     <use x="539.478516" xlink:href="#DejaVuSans-6e"/>
     <use x="602.857422" xlink:href="#DejaVuSans-20"/>
     <use x="634.644531" xlink:href="#DejaVuSans-44"/>
     <use x="711.646484" xlink:href="#DejaVuSans-61"/>
     <use x="772.925781" xlink:href="#DejaVuSans-74"/>
     <use x="812.134766" xlink:href="#DejaVuSans-61"/>
     <use x="873.414062" xlink:href="#DejaVuSans-20"/>
     <use x="905.201172" xlink:href="#DejaVuSans-76"/>
     <use x="964.380859" xlink:href="#DejaVuSans-73"/>
     <use x="1016.480469" xlink:href="#DejaVuSans-20"/>
     <use x="1048.267578" xlink:href="#DejaVuSans-4d"/>
     <use x="1134.546875" xlink:href="#DejaVuSans-43"/>
     <use x="1204.371094" xlink:href="#DejaVuSans-4d"/>
     <use x="1290.650391" xlink:href="#DejaVuSans-43"/>
     <use x="1360.474609" xlink:href="#DejaVuSans-20"/>
     <use x="1392.261719" xlink:href="#DejaVuSans-55"/>
     <use x="1465.455078" xlink:href="#DejaVuSans-6e"/>
     <use x="1528.833984" xlink:href="#DejaVuSans-63"/>
     <use x="1583.814453" xlink:href="#DejaVuSans-65"/>
     <use x="1645.337891" xlink:href="#DejaVuSans-72"/>
     <use x="1686.451172" xlink:href="#DejaVuSans-74"/>
     <use x="1725.660156" xlink:href="#DejaVuSans-61"/>
     <use x="1786.939453" xlink:href="#DejaVuSans-69"/>
     <use x="1814.722656" xlink:href="#DejaVuSans-6e"/>
     <use x="1878.101562" xlink:href="#DejaVuSans-74"/>
     <use x="1917.310547" xlink:href="#DejaVuSans-79"/>
     <use x="1976.490234" xlink:href="#DejaVuSans-20"/>
    </g>
   </g>
   <g id="legend_1">
    <g id="patch_7">
     <path d="M 277.843437 108.1845 
L 407.72 108.1845 
Q 409.72 108.1845 409.72 106.1845 
L 409.72 48.472 
Q 409.72 46.472 407.72 46.472 
L 277.843437 46.472 
Q 275.843437 46.472 275.843437 48.472 
L 275.843437 106.1845 
Q 275.843437 108.1845 277.843437 108.1845 
z
" style="fill:#ffffff;opacity:0.8;stroke:#cccccc;stroke-linejoin:miter;"/>
    </g>
    <g id="line2d_17">
     <path d="M 279.843437 54.570438 
L 299.843437 54.570438 
" style="fill:none;stroke:#1f77b4;stroke-linecap:square;stroke-width:1.5;"/>
    </g>
    <g id="line2d_18"/>
    <g id="text_14">
     <!-- actual -->
     <defs>
      <path d="M 8.5 21.578125 
L 8.5 54.6875 
L 17.484375 54.6875 
L 17.484375 21.921875 
Q 17.484375 14.15625 20.5 10.265625 
Q 23.53125 6.390625 29.59375 6.390625 
Q 36.859375 6.390625 41.078125 11.03125 
Q 45.3125 15.671875 45.3125 23.6875 
L 45.3125 54.6875 
L 54.296875 54.6875 
L 54.296875 0 
L 45.3125 0 
L 45.3125 8.40625 
Q 42.046875 3.421875 37.71875 1 
Q 33.40625 -1.421875 27.6875 -1.421875 
Q 18.265625 -1.421875 13.375 4.4375 
Q 8.5 10.296875 8.5 21.578125 
z
M 31.109375 56 
z
" id="DejaVuSans-75"/>
     </defs>
     <g transform="translate(307.843437 58.070438)scale(0.1 -0.1)">
      <use xlink:href="#DejaVuSans-61"/>
      <use x="61.279297" xlink:href="#DejaVuSans-63"/>
      <use x="116.259766" xlink:href="#DejaVuSans-74"/>
      <use x="155.46875" xlink:href="#DejaVuSans-75"/>
      <use x="218.847656" xlink:href="#DejaVuSans-61"/>
      <use x="280.126953" xlink:href="#DejaVuSans-6c"/>
     </g>
    </g>
    <g id="line2d_19">
     <path d="M 279.843437 69.248563 
L 299.843437 69.248563 
" style="fill:none;stroke:#ff7f0e;stroke-linecap:square;stroke-width:1.5;"/>
    </g>
    <g id="line2d_20"/>
    <g id="text_15">
     <!-- pred. (mean) -->
     <defs>
      <path d="M 18.109375 8.203125 
L 18.109375 -20.796875 
L 9.078125 -20.796875 
L 9.078125 54.6875 
L 18.109375 54.6875 
L 18.109375 46.390625 
Q 20.953125 51.265625 25.265625 53.625 
Q 29.59375 56 35.59375 56 
Q 45.5625 56 51.78125 48.09375 
Q 58.015625 40.1875 58.015625 27.296875 
Q 58.015625 14.40625 51.78125 6.484375 
Q 45.5625 -1.421875 35.59375 -1.421875 
Q 29.59375 -1.421875 25.265625 0.953125 
Q 20.953125 3.328125 18.109375 8.203125 
z
M 48.6875 27.296875 
Q 48.6875 37.203125 44.609375 42.84375 
Q 40.53125 48.484375 33.40625 48.484375 
Q 26.265625 48.484375 22.1875 42.84375 
Q 18.109375 37.203125 18.109375 27.296875 
Q 18.109375 17.390625 22.1875 11.75 
Q 26.265625 6.109375 33.40625 6.109375 
Q 40.53125 6.109375 44.609375 11.75 
Q 48.6875 17.390625 48.6875 27.296875 
z
" id="DejaVuSans-70"/>
      <path d="M 45.40625 46.390625 
L 45.40625 75.984375 
L 54.390625 75.984375 
L 54.390625 0 
L 45.40625 0 
L 45.40625 8.203125 
Q 42.578125 3.328125 38.25 0.953125 
Q 33.9375 -1.421875 27.875 -1.421875 
Q 17.96875 -1.421875 11.734375 6.484375 
Q 5.515625 14.40625 5.515625 27.296875 
Q 5.515625 40.1875 11.734375 48.09375 
Q 17.96875 56 27.875 56 
Q 33.9375 56 38.25 53.625 
Q 42.578125 51.265625 45.40625 46.390625 
z
M 14.796875 27.296875 
Q 14.796875 17.390625 18.875 11.75 
Q 22.953125 6.109375 30.078125 6.109375 
Q 37.203125 6.109375 41.296875 11.75 
Q 45.40625 17.390625 45.40625 27.296875 
Q 45.40625 37.203125 41.296875 42.84375 
Q 37.203125 48.484375 30.078125 48.484375 
Q 22.953125 48.484375 18.875 42.84375 
Q 14.796875 37.203125 14.796875 27.296875 
z
" id="DejaVuSans-64"/>
      <path d="M 31 75.875 
Q 24.46875 64.65625 21.28125 53.65625 
Q 18.109375 42.671875 18.109375 31.390625 
Q 18.109375 20.125 21.3125 9.0625 
Q 24.515625 -2 31 -13.1875 
L 23.1875 -13.1875 
Q 15.875 -1.703125 12.234375 9.375 
Q 8.59375 20.453125 8.59375 31.390625 
Q 8.59375 42.28125 12.203125 53.3125 
Q 15.828125 64.359375 23.1875 75.875 
z
" id="DejaVuSans-28"/>
      <path d="M 52 44.1875 
Q 55.375 50.25 60.0625 53.125 
Q 64.75 56 71.09375 56 
Q 79.640625 56 84.28125 50.015625 
Q 88.921875 44.046875 88.921875 33.015625 
L 88.921875 0 
L 79.890625 0 
L 79.890625 32.71875 
Q 79.890625 40.578125 77.09375 44.375 
Q 74.3125 48.1875 68.609375 48.1875 
Q 61.625 48.1875 57.5625 43.546875 
Q 53.515625 38.921875 53.515625 30.90625 
L 53.515625 0 
L 44.484375 0 
L 44.484375 32.71875 
Q 44.484375 40.625 41.703125 44.40625 
Q 38.921875 48.1875 33.109375 48.1875 
Q 26.21875 48.1875 22.15625 43.53125 
Q 18.109375 38.875 18.109375 30.90625 
L 18.109375 0 
L 9.078125 0 
L 9.078125 54.6875 
L 18.109375 54.6875 
L 18.109375 46.1875 
Q 21.1875 51.21875 25.484375 53.609375 
Q 29.78125 56 35.6875 56 
Q 41.65625 56 45.828125 52.96875 
Q 50 49.953125 52 44.1875 
z
" id="DejaVuSans-6d"/>
      <path d="M 8.015625 75.875 
L 15.828125 75.875 
Q 23.140625 64.359375 26.78125 53.3125 
Q 30.421875 42.28125 30.421875 31.390625 
Q 30.421875 20.453125 26.78125 9.375 
Q 23.140625 -1.703125 15.828125 -13.1875 
L 8.015625 -13.1875 
Q 14.5 -2 17.703125 9.0625 
Q 20.90625 20.125 20.90625 31.390625 
Q 20.90625 42.671875 17.703125 53.65625 
Q 14.5 64.65625 8.015625 75.875 
z
" id="DejaVuSans-29"/>
     </defs>
     <g transform="translate(307.843437 72.748563)scale(0.1 -0.1)">
      <use xlink:href="#DejaVuSans-70"/>
      <use x="63.476562" xlink:href="#DejaVuSans-72"/>
      <use x="104.558594" xlink:href="#DejaVuSans-65"/>
      <use x="166.082031" xlink:href="#DejaVuSans-64"/>
      <use x="229.558594" xlink:href="#DejaVuSans-2e"/>
      <use x="261.345703" xlink:href="#DejaVuSans-20"/>
      <use x="293.132812" xlink:href="#DejaVuSans-28"/>
      <use x="332.146484" xlink:href="#DejaVuSans-6d"/>
      <use x="429.558594" xlink:href="#DejaVuSans-65"/>
      <use x="491.082031" xlink:href="#DejaVuSans-61"/>
      <use x="552.361328" xlink:href="#DejaVuSans-6e"/>
      <use x="615.740234" xlink:href="#DejaVuSans-29"/>
     </g>
    </g>
    <g id="line2d_21">
     <path d="M 279.843437 83.926688 
L 299.843437 83.926688 
" style="fill:none;stroke:#2ca02c;stroke-linecap:square;stroke-width:1.5;"/>
    </g>
    <g id="line2d_22"/>
    <g id="text_16">
     <!-- pred.(5th percen.) -->
     <defs>
      <path d="M 10.796875 72.90625 
L 49.515625 72.90625 
L 49.515625 64.59375 
L 19.828125 64.59375 
L 19.828125 46.734375 
Q 21.96875 47.46875 24.109375 47.828125 
Q 26.265625 48.1875 28.421875 48.1875 
Q 40.625 48.1875 47.75 41.5 
Q 54.890625 34.8125 54.890625 23.390625 
Q 54.890625 11.625 47.5625 5.09375 
Q 40.234375 -1.421875 26.90625 -1.421875 
Q 22.3125 -1.421875 17.546875 -0.640625 
Q 12.796875 0.140625 7.71875 1.703125 
L 7.71875 11.625 
Q 12.109375 9.234375 16.796875 8.0625 
Q 21.484375 6.890625 26.703125 6.890625 
Q 35.15625 6.890625 40.078125 11.328125 
Q 45.015625 15.765625 45.015625 23.390625 
Q 45.015625 31 40.078125 35.4375 
Q 35.15625 39.890625 26.703125 39.890625 
Q 22.75 39.890625 18.8125 39.015625 
Q 14.890625 38.140625 10.796875 36.28125 
z
" id="DejaVuSans-35"/>
      <path d="M 54.890625 33.015625 
L 54.890625 0 
L 45.90625 0 
L 45.90625 32.71875 
Q 45.90625 40.484375 42.875 44.328125 
Q 39.84375 48.1875 33.796875 48.1875 
Q 26.515625 48.1875 22.3125 43.546875 
Q 18.109375 38.921875 18.109375 30.90625 
L 18.109375 0 
L 9.078125 0 
L 9.078125 75.984375 
L 18.109375 75.984375 
L 18.109375 46.1875 
Q 21.34375 51.125 25.703125 53.5625 
Q 30.078125 56 35.796875 56 
Q 45.21875 56 50.046875 50.171875 
Q 54.890625 44.34375 54.890625 33.015625 
z
" id="DejaVuSans-68"/>
     </defs>
     <g transform="translate(307.843437 87.426688)scale(0.1 -0.1)">
      <use xlink:href="#DejaVuSans-70"/>
      <use x="63.476562" xlink:href="#DejaVuSans-72"/>
      <use x="104.558594" xlink:href="#DejaVuSans-65"/>
      <use x="166.082031" xlink:href="#DejaVuSans-64"/>
      <use x="229.558594" xlink:href="#DejaVuSans-2e"/>
      <use x="261.345703" xlink:href="#DejaVuSans-28"/>
      <use x="300.359375" xlink:href="#DejaVuSans-35"/>
      <use x="363.982422" xlink:href="#DejaVuSans-74"/>
      <use x="403.191406" xlink:href="#DejaVuSans-68"/>
      <use x="466.570312" xlink:href="#DejaVuSans-20"/>
      <use x="498.357422" xlink:href="#DejaVuSans-70"/>
      <use x="561.833984" xlink:href="#DejaVuSans-65"/>
      <use x="623.357422" xlink:href="#DejaVuSans-72"/>
      <use x="664.439453" xlink:href="#DejaVuSans-63"/>
      <use x="719.419922" xlink:href="#DejaVuSans-65"/>
      <use x="780.943359" xlink:href="#DejaVuSans-6e"/>
      <use x="844.322266" xlink:href="#DejaVuSans-2e"/>
      <use x="876.109375" xlink:href="#DejaVuSans-29"/>
     </g>
    </g>
    <g id="line2d_23">
     <path d="M 279.843437 98.604813 
L 299.843437 98.604813 
" style="fill:none;stroke:#d62728;stroke-linecap:square;stroke-width:1.5;"/>
    </g>
    <g id="line2d_24"/>
    <g id="text_17">
     <!-- pred.(95th percen.) -->
     <defs>
      <path d="M 10.984375 1.515625 
L 10.984375 10.5 
Q 14.703125 8.734375 18.5 7.8125 
Q 22.3125 6.890625 25.984375 6.890625 
Q 35.75 6.890625 40.890625 13.453125 
Q 46.046875 20.015625 46.78125 33.40625 
Q 43.953125 29.203125 39.59375 26.953125 
Q 35.25 24.703125 29.984375 24.703125 
Q 19.046875 24.703125 12.671875 31.3125 
Q 6.296875 37.9375 6.296875 49.421875 
Q 6.296875 60.640625 12.9375 67.421875 
Q 19.578125 74.21875 30.609375 74.21875 
Q 43.265625 74.21875 49.921875 64.515625 
Q 56.59375 54.828125 56.59375 36.375 
Q 56.59375 19.140625 48.40625 8.859375 
Q 40.234375 -1.421875 26.421875 -1.421875 
Q 22.703125 -1.421875 18.890625 -0.6875 
Q 15.09375 0.046875 10.984375 1.515625 
z
M 30.609375 32.421875 
Q 37.25 32.421875 41.125 36.953125 
Q 45.015625 41.5 45.015625 49.421875 
Q 45.015625 57.28125 41.125 61.84375 
Q 37.25 66.40625 30.609375 66.40625 
Q 23.96875 66.40625 20.09375 61.84375 
Q 16.21875 57.28125 16.21875 49.421875 
Q 16.21875 41.5 20.09375 36.953125 
Q 23.96875 32.421875 30.609375 32.421875 
z
" id="DejaVuSans-39"/>
     </defs>
     <g transform="translate(307.843437 102.104813)scale(0.1 -0.1)">
      <use xlink:href="#DejaVuSans-70"/>
      <use x="63.476562" xlink:href="#DejaVuSans-72"/>
      <use x="104.558594" xlink:href="#DejaVuSans-65"/>
      <use x="166.082031" xlink:href="#DejaVuSans-64"/>
      <use x="229.558594" xlink:href="#DejaVuSans-2e"/>
      <use x="261.345703" xlink:href="#DejaVuSans-28"/>
      <use x="300.359375" xlink:href="#DejaVuSans-39"/>
      <use x="363.982422" xlink:href="#DejaVuSans-35"/>
      <use x="427.605469" xlink:href="#DejaVuSans-74"/>
      <use x="466.814453" xlink:href="#DejaVuSans-68"/>
      <use x="530.193359" xlink:href="#DejaVuSans-20"/>
      <use x="561.980469" xlink:href="#DejaVuSans-70"/>
      <use x="625.457031" xlink:href="#DejaVuSans-65"/>
      <use x="686.980469" xlink:href="#DejaVuSans-72"/>
      <use x="728.0625" xlink:href="#DejaVuSans-63"/>
      <use x="783.042969" xlink:href="#DejaVuSans-65"/>
      <use x="844.566406" xlink:href="#DejaVuSans-6e"/>
      <use x="907.945312" xlink:href="#DejaVuSans-2e"/>
      <use x="939.732422" xlink:href="#DejaVuSans-29"/>
     </g>
    </g>
   </g>
  </g>
 </g>
 <defs>
  <clipPath id="p811d6f58e1">
   <rect height="266.112" width="357.12" x="57.6" y="41.472"/>
  </clipPath>
 </defs>
</svg>
